<svg xmlns="http://www.w3.org/2000/svg" width="29" height="29" viewBox="0 0 29 29">
  <g id="Group_423" data-name="Group 423" transform="translate(0.272 -0.079)">
    <circle id="Ellipse_167" data-name="Ellipse 167" cx="14.5" cy="14.5" r="14.5" transform="translate(-0.272 0.079)" fill="#0e1623"/>
    <path id="linkedin" d="M11.711,6.885v4.329H9.2V7.171c0-1.015-.363-1.707-1.273-1.707a1.373,1.373,0,0,0-1.288.918,1.715,1.715,0,0,0-.083.612V11.21H4.045s.034-6.841,0-7.55H6.559V4.734l-.016.025h.016V4.734A2.492,2.492,0,0,1,8.821,3.486C10.473,3.486,11.711,4.566,11.711,6.885ZM1.424.024a1.308,1.308,0,1,0-.033,2.609h.016A1.309,1.309,0,1,0,1.424.024ZM.152,11.214H2.661V3.664H.152Z" transform="translate(8.921 8.056)" fill="#fff"/>
  </g>
</svg>
