<svg xmlns="http://www.w3.org/2000/svg" width="232.788" height="45.533" viewBox="0 0 232.788 45.533">
  <g id="Group_1627" data-name="Group 1627" transform="translate(-11711.826 -638.637)">
    <path id="Path_68" data-name="Path 68" d="M113.316,13.614h3.716v9.245h10.556V13.614H131.3V35.945h-3.717v-9.9H117.032v9.9h-3.716Z" transform="translate(11654.863 636.296)" fill="#f6fafc"/>
    <path id="Path_69" data-name="Path 69" d="M149.85,38.563c-5,0-8.025-3.467-8.025-8.433s3.028-8.432,8.025-8.432,8.027,3.466,8.027,8.432-3.029,8.433-8.027,8.433m0-2.686c3.123,0,4.749-2.467,4.749-5.747,0-3.31-1.625-5.747-4.749-5.747S145.1,26.82,145.1,30.13c0,3.28,1.624,5.747,4.747,5.747" transform="translate(11647.28 634.146)" fill="#f6fafc"/>
    <path id="Path_70" data-name="Path 70" d="M177.259,22.294h3.312V38.253h-3.312v-2.03H177.2a6.1,6.1,0,0,1-5.247,2.5c-2.966,0-5.277-1.748-5.277-5.4V22.294h3.278V32.381c0,2.186.938,3.529,3.155,3.529,2.529,0,4.153-1.5,4.153-3.9Z" transform="translate(11640.673 633.987)" fill="#f6fafc"/>
    <path id="Path_71" data-name="Path 71" d="M202.478,33.6c0,3.06-2.624,4.966-6.5,4.966-5.152,0-7.37-2.406-7.527-5.778h3.186c.156,1.717.906,3.184,4.279,3.184,2.28,0,3.247-1.125,3.247-2.124,0-2-1.9-2.154-4.247-2.716-2.53-.594-5.965-1.093-5.965-4.716,0-2.624,2.311-4.716,6.308-4.716,4.342,0,6.4,2.342,6.622,5.122H198.7c-.219-1.249-.843-2.53-3.4-2.53-1.968,0-3.029.749-3.029,1.873,0,1.625,1.78,1.75,4.092,2.281,2.935.687,6.121,1.343,6.121,5.153" transform="translate(11634.879 634.146)" fill="#f6fafc"/>
    <path id="Path_72" data-name="Path 72" d="M210.539,15.63a1.861,1.861,0,1,1,1.841,1.749,1.763,1.763,0,0,1-1.841-1.749m.218,4.435h3.278V36.024h-3.278Z" transform="translate(11629.007 636.216)" fill="#f6fafc"/>
    <path id="Path_73" data-name="Path 73" d="M233.754,27.069V38.095h-3.311V28.006c0-2.154-.906-3.528-3.155-3.528-2.53,0-4.153,1.529-4.153,3.9v9.714h-3.28V22.135h3.28V24.2h.062a6.028,6.028,0,0,1,5.247-2.5c2.967,0,5.309,1.717,5.309,5.371" transform="translate(11626.528 634.146)" fill="#f6fafc"/>
    <path id="Path_74" data-name="Path 74" d="M253.624,22.135h3.28V37c0,4.591-2.78,6.621-7.308,6.621-4.592,0-7.121-2.4-7.465-5.091h3.311c.312,1.406,1.437,2.468,4.029,2.468,2.748,0,4.153-1.249,4.153-4.123V34.94h-.062a5.607,5.607,0,0,1-4.841,2.374c-4,0-6.995-2.78-6.995-7.808,0-5.058,3-7.807,6.995-7.807a5.731,5.731,0,0,1,4.841,2.312h.062Zm-.03,7.37c0-3.372-1.593-5.122-4.248-5.122-2.873,0-4.341,2.155-4.341,5.122,0,2.936,1.468,5.122,4.341,5.122,2.655,0,4.248-1.749,4.248-5.122" transform="translate(11620.713 634.146)" fill="#f6fafc"/>
    <path id="Path_75" data-name="Path 75" d="M113.316,54.424h3.716V73.6h11.15v3.155H113.316Z" transform="translate(11775.704 595.704)" fill="#f6fafc"/>
    <path id="Path_76" data-name="Path 76" d="M136.717,56.44a1.861,1.861,0,1,1,1.843,1.749,1.764,1.764,0,0,1-1.843-1.749m.219,4.434h3.278V76.834h-3.278Z" transform="translate(11769.482 595.625)" fill="#f6fafc"/>
    <path id="Path_77" data-name="Path 77" d="M159.933,67.88V78.906h-3.311V68.817c0-2.154-.906-3.528-3.155-3.528-2.53,0-4.153,1.529-4.153,3.9v9.714h-3.28V62.946h3.28v2.061h.062a6.028,6.028,0,0,1,5.247-2.5c2.967,0,5.309,1.717,5.309,5.371" transform="translate(11767.004 593.554)" fill="#f6fafc"/>
    <path id="Path_78" data-name="Path 78" d="M179.9,74.033h3.28c-.813,3.029-3.186,5.341-7.277,5.341-4.966,0-7.995-3.435-7.995-8.433,0-5.185,3.029-8.432,7.838-8.432,5.154,0,7.683,3.591,7.683,9.276H171.183c0,2.686,1.718,4.9,4.622,4.9a3.949,3.949,0,0,0,4.092-2.655m-8.714-4.685h8.963a4.125,4.125,0,0,0-4.4-4.248,4.257,4.257,0,0,0-4.56,4.248" transform="translate(11761.188 593.554)" fill="#f6fafc"/>
    <path id="Path_79" data-name="Path 79" d="M38.407,21.3V44.184l2.644,1.348V19.776L28.829,12.717V8.368L14.559,0,0,7.092v2.928L14.368,3.151,26.184,9.973v2.612L14.046,18.5V6.092L0,12.5V24.664L28.1,38.947V17.552L14.046,23.96V21.434L27.493,15Z" transform="translate(11711.826 638.637)" fill="#f6fafc"/>
  </g>
</svg>
